#define _width 77
#define _height 76
static char _bits[] = {
 0x00,0x00,0x00,0x00,0x00,0x00,0x00,0x00,0x00,0x00,0x00,0x00,0x00,0x25,0x01,
 0x01,0x00,0x00,0x00,0x0a,0xcc,0xe5,0x05,0x25,0x11,0x01,0x00,0x00,0xc0,0x0f,
 0xce,0xc2,0x03,0x25,0x91,0x01,0x00,0x00,0x00,0x0e,0x00,0x00,0x00,0x25,0x01,
 0x01,0x00,0x00,0x00,0x0a,0x00,0x00,0x00,0x00,0x00,0x00,0x00,0x00,0x00,0x00,
 0x00,0x00,0x00,0x00,0x00,0x00,0x00,0x00,0x04,0x00,0x00,0x00,0x00,0x00,0x00,
 0x00,0x00,0x00,0x04,0x00,0x00,0x00,0x00,0x00,0x00,0x00,0x00,0x00,0x04,0x00,
 0x00,0x00,0x00,0x00,0x00,0x00,0x00,0x00,0x04,0x00,0x00,0x00,0x00,0x00,0x00,
 0x00,0x00,0x00,0x04,0x00,0x00,0x00,0x00,0x00,0x00,0x00,0x00,0x00,0x04,0x00,
 0x00,0x00,0x00,0x00,0x00,0x00,0x00,0x00,0x04,0x00,0x00,0x00,0x00,0x00,0x00,
 0x00,0x00,0x00,0x04,0x00,0x00,0x00,0x00,0x00,0x00,0x00,0x00,0x00,0x04,0x00,
 0x00,0x00,0x00,0x00,0x00,0x00,0x00,0x00,0x04,0x00,0x00,0x00,0x00,0x00,0x00,
 0x00,0x00,0x00,0x04,0x00,0x00,0x00,0x00,0x00,0x00,0x40,0x00,0x00,0x04,0x00,
 0x00,0x00,0x00,0x00,0x00,0x40,0x00,0x00,0x04,0x00,0x00,0x00,0x00,0x00,0x00,
 0x40,0x00,0x00,0x04,0x00,0x00,0x00,0x00,0x00,0x00,0x40,0x00,0x00,0x04,0x00,
 0x00,0x00,0x00,0x10,0x00,0x40,0x00,0x00,0x04,0x02,0x00,0x00,0x00,0x10,0x00,
 0x60,0x00,0x00,0xe4,0x02,0x00,0x00,0x00,0x10,0x00,0x60,0x40,0x00,0xe4,0x02,
 0x00,0x00,0x00,0x10,0x00,0x60,0x40,0x00,0x04,0x02,0x00,0x00,0x00,0x10,0x48,
 0x60,0xd0,0x00,0x04,0x00,0x00,0x00,0x00,0x10,0xcc,0xe0,0xf0,0x00,0x04,0x00,
 0x00,0x00,0x40,0x10,0xcd,0xe0,0xf1,0x01,0x04,0x00,0x00,0x00,0x40,0x10,0xed,
 0xe0,0xf3,0x01,0x04,0x00,0x00,0x00,0x40,0x10,0xed,0xe0,0xf3,0x01,0x04,0x00,
 0x00,0x00,0x60,0x10,0xed,0xe0,0xff,0x01,0x04,0x00,0x00,0x00,0x60,0x50,0xfd,
 0xe0,0xff,0x19,0x04,0x00,0x04,0x00,0x60,0xf0,0xfd,0xe0,0xff,0xd9,0x04,0x00,
 0x0c,0x00,0xe0,0xf0,0xff,0xe0,0xff,0xd9,0x05,0x00,0xfc,0x00,0xe0,0xf8,0xff,
 0xef,0xff,0xd9,0x07,0x00,0xfe,0x7f,0xff,0xfb,0xff,0xff,0xff,0xff,0x07,0x00,
 0xfc,0x13,0xe0,0xf8,0xff,0xef,0xff,0xdb,0x05,0x00,0x2c,0x00,0xe0,0xf8,0xf9,
 0xe9,0xfd,0xd9,0x05,0x00,0x00,0x00,0xe0,0xf8,0xf9,0xe1,0xfd,0x19,0x05,0x00,
 0x00,0x00,0x60,0xf0,0xf9,0xe0,0xfc,0x01,0x04,0x00,0x00,0x00,0x60,0xf0,0xf9,
 0xe0,0xfc,0x01,0x04,0x00,0x00,0x00,0x60,0x30,0xe9,0xe0,0xfc,0x01,0x04,0x00,
 0x00,0x00,0x60,0x10,0xe9,0xe0,0xfc,0x00,0x04,0x00,0x00,0x00,0x60,0x10,0xe9,
 0xe0,0xfc,0x00,0x04,0x00,0x00,0x00,0x60,0x10,0xc0,0xe0,0x7c,0x00,0x04,0x00,
 0x00,0x00,0x20,0x10,0xc0,0xe0,0x7c,0x00,0x04,0x00,0x00,0x00,0x00,0x10,0xc0,
 0xe0,0x7c,0x00,0x04,0x00,0x00,0x00,0x00,0x10,0xc0,0xe0,0x7c,0x00,0x04,0x00,
 0x00,0x00,0x00,0x10,0xc0,0xe0,0x7c,0x00,0x04,0x00,0x00,0x00,0x00,0x00,0xc0,
 0xe0,0x78,0x00,0x04,0x00,0x00,0x00,0x00,0x00,0x40,0xe0,0x78,0x00,0x04,0x00,
 0x00,0x00,0x00,0x00,0x40,0xe0,0x78,0x00,0x04,0x00,0x00,0x00,0x00,0x00,0x00,
 0xe0,0x78,0x00,0x04,0x00,0x00,0x00,0x00,0x00,0x00,0xe0,0x58,0x00,0x04,0x00,
 0x00,0x00,0x00,0x00,0x00,0xe0,0x58,0x00,0x04,0x00,0x00,0x00,0x00,0x00,0x00,
 0x60,0x58,0x00,0x04,0x00,0x00,0x00,0x00,0x00,0x00,0x40,0x08,0x00,0x04,0x00,
 0x00,0x00,0x00,0x00,0x00,0x40,0x00,0x00,0x04,0x00,0x00,0x00,0x00,0x00,0x00,
 0x40,0x00,0x00,0x04,0x00,0x00,0x00,0x00,0x00,0x00,0x40,0x00,0x00,0x04,0x00,
 0x00,0x00,0x00,0x00,0x00,0x40,0x00,0x00,0x04,0x00,0x00,0x00,0x00,0x00,0x00,
 0x00,0x00,0x00,0x04,0x00,0x00,0x00,0x00,0x00,0x00,0x00,0x00,0x00,0x04,0x00,
 0x00,0x00,0x00,0x00,0x00,0x00,0x00,0x00,0x04,0x00,0x00,0x00,0x00,0x00,0x00,
 0x00,0x00,0x00,0x04,0x00,0xfe,0xff,0xff,0xff,0xff,0xff,0xff,0xff,0x07,0x00,
 0x00,0x00,0x00,0x00,0x00,0x00,0x00,0x00,0x04,0x00,0x00,0x00,0x00,0x00,0x00,
 0x00,0x00,0x00,0x04,0x00,0x00,0x00,0x40,0x00,0x00,0x00,0x08,0x00,0x04,0x00,
 0x00,0x00,0x30,0x00,0x00,0x80,0x13,0x00,0x04,0x00,0x00,0x00,0x00,0x00,0x00,
 0x00,0x00,0x00,0x04,0x00,0xfe,0xff,0xff,0xff,0xff,0xff,0xff,0xff,0x07,0x00,
 0x00,0x00,0x00,0x00,0x00,0x00,0x00,0x00,0x00,0x00,0x24,0x3a,0x03,0xb1,0x00,
 0x00,0x00,0x00,0x00,0x00,0x34,0x3a,0x01,0xf3,0x00,0x00,0x00,0x00,0x00,0x00,
 0x00,0x00,0x00,0x00,0x00,0x00,0x00,0x00,0x00,0x00};
