#define icon_width 17
#define icon_height 18
static char icon_bits[] = {
   0x00, 0x00, 0x00, 0x00, 0x00, 0x00, 0x00, 0x00, 0x00, 0x00, 0x00, 0x00,
   0x00, 0x00, 0x00, 0x00, 0x00, 0x00, 0x10, 0x10, 0x00, 0x30, 0x18, 0x00,
   0x70, 0x1c, 0x00, 0xfe, 0xff, 0x00, 0x70, 0x1c, 0x00, 0x30, 0x18, 0x00,
   0x10, 0x10, 0x00, 0x00, 0x00, 0x00, 0x00, 0x00, 0x00, 0x00, 0x00, 0x00,
   0x00, 0x00, 0x00, 0x00, 0x00, 0x00};
