#define icon_width 17
#define icon_height 18
static char icon_bits[] = {
   0x00, 0x00, 0x00, 0x00, 0x0c, 0x00, 0x00, 0x30, 0x00, 0x80, 0x64, 0x00,
   0xc0, 0xd8, 0x00, 0xe0, 0xb0, 0x00, 0xf0, 0xac, 0x00, 0xfc, 0x58, 0x01,
   0xfc, 0x50, 0x01, 0xfc, 0x50, 0x01, 0xfc, 0x58, 0x01, 0xf0, 0xac, 0x00,
   0xe0, 0xb0, 0x00, 0xc0, 0xd8, 0x00, 0x80, 0x64, 0x00, 0x00, 0x30, 0x00,
   0x00, 0x0c, 0x00, 0x00, 0x00, 0x00};
