#define icon_width 17
#define icon_height 18
static char icon_bits[] = {
   0x00, 0x00, 0x00, 0x00, 0x00, 0x00, 0x00, 0x00, 0x00, 0x00, 0x00, 0x00,
   0x00, 0x00, 0x00, 0x02, 0x80, 0x00, 0x22, 0x88, 0x00, 0x32, 0x98, 0x00,
   0x3a, 0xb8, 0x00, 0xfe, 0xff, 0x00, 0x3a, 0xb8, 0x00, 0x32, 0x98, 0x00,
   0x22, 0x88, 0x00, 0x02, 0x80, 0x00, 0x00, 0x00, 0x00, 0x00, 0x00, 0x00,
   0x00, 0x00, 0x00, 0x00, 0x00, 0x00};
